<svg id="visual" viewBox="0 0 900 300" width="900" height="300" xmlns="http://www.w3.org/2000/svg" xmlns:xlink="http://www.w3.org/1999/xlink" version="1.1"><rect x="0" y="0" width="900" height="300" fill="#323232"></rect><path d="M0 76L21.5 82.2C43 88.3 86 100.7 128.8 105.2C171.7 109.7 214.3 106.3 257.2 107.7C300 109 343 115 385.8 112.3C428.7 109.7 471.3 98.3 514.2 98.3C557 98.3 600 109.7 642.8 113.5C685.7 117.3 728.3 113.7 771.2 109.7C814 105.7 857 101.3 878.5 99.2L900 97L900 0L878.5 0C857 0 814 0 771.2 0C728.3 0 685.7 0 642.8 0C600 0 557 0 514.2 0C471.3 0 428.7 0 385.8 0C343 0 300 0 257.2 0C214.3 0 171.7 0 128.8 0C86 0 43 0 21.5 0L0 0Z" fill="#858585"></path><path d="M0 90L21.5 88.8C43 87.7 86 85.3 128.8 85.3C171.7 85.3 214.3 87.7 257.2 84.2C300 80.7 343 71.3 385.8 67.5C428.7 63.7 471.3 65.3 514.2 70C557 74.7 600 82.3 642.8 83C685.7 83.7 728.3 77.3 771.2 77.7C814 78 857 85 878.5 88.5L900 92L900 0L878.5 0C857 0 814 0 771.2 0C728.3 0 685.7 0 642.8 0C600 0 557 0 514.2 0C471.3 0 428.7 0 385.8 0C343 0 300 0 257.2 0C214.3 0 171.7 0 128.8 0C86 0 43 0 21.5 0L0 0Z" fill="#a2a2a2"></path><path d="M0 56L21.5 56.7C43 57.3 86 58.7 128.8 59.8C171.7 61 214.3 62 257.2 62C300 62 343 61 385.8 60.3C428.7 59.7 471.3 59.3 514.2 56.7C557 54 600 49 642.8 46.8C685.7 44.7 728.3 45.3 771.2 47.2C814 49 857 52 878.5 53.5L900 55L900 0L878.5 0C857 0 814 0 771.2 0C728.3 0 685.7 0 642.8 0C600 0 557 0 514.2 0C471.3 0 428.7 0 385.8 0C343 0 300 0 257.2 0C214.3 0 171.7 0 128.8 0C86 0 43 0 21.5 0L0 0Z" fill="#c0c0c0"></path><path d="M0 35L21.5 34.5C43 34 86 33 128.8 36C171.7 39 214.3 46 257.2 50.3C300 54.7 343 56.3 385.8 54.7C428.7 53 471.3 48 514.2 47.7C557 47.3 600 51.7 642.8 51.3C685.7 51 728.3 46 771.2 44.5C814 43 857 45 878.5 46L900 47L900 0L878.5 0C857 0 814 0 771.2 0C728.3 0 685.7 0 642.8 0C600 0 557 0 514.2 0C471.3 0 428.7 0 385.8 0C343 0 300 0 257.2 0C214.3 0 171.7 0 128.8 0C86 0 43 0 21.5 0L0 0Z" fill="#dfdfdf"></path><path d="M0 16L21.5 16.8C43 17.7 86 19.3 128.8 20.2C171.7 21 214.3 21 257.2 21.3C300 21.7 343 22.3 385.8 22.8C428.7 23.3 471.3 23.7 514.2 23.8C557 24 600 24 642.8 25.5C685.7 27 728.3 30 771.2 28.7C814 27.3 857 21.7 878.5 18.8L900 16L900 0L878.5 0C857 0 814 0 771.2 0C728.3 0 685.7 0 642.8 0C600 0 557 0 514.2 0C471.3 0 428.7 0 385.8 0C343 0 300 0 257.2 0C214.3 0 171.7 0 128.8 0C86 0 43 0 21.5 0L0 0Z" fill="#ffffff"></path></svg>